<?xml version="1.0" encoding="utf-8"?>
<!-- Generator: Adobe Illustrator 16.0.0, SVG Export Plug-In . SVG Version: 6.00 Build 0)  -->
<!DOCTYPE svg PUBLIC "-//W3C//DTD SVG 1.1//EN" "http://www.w3.org/Graphics/SVG/1.1/DTD/svg11.dtd">
<svg version="1.1" id="icon" xmlns="http://www.w3.org/2000/svg" xmlns:xlink="http://www.w3.org/1999/xlink" x="0px" y="0px"
	 width="566.929px" height="566.929px" viewBox="0 0 566.929 566.929" enable-background="new 0 0 566.929 566.929"
	 xml:space="preserve">
<circle id="bg-shape" opacity="0.5" fill-rule="evenodd" clip-rule="evenodd" cx="283.465" cy="283.464" r="269.292"/>
<path id="pics" opacity="0.5" fill-rule="evenodd" clip-rule="evenodd" fill="#FFFFFF" d="M180.424,148.786l1.618,156.261
	l52.172-156.776L180.424,148.786z M164.357,232.799l-43.79,14.45l55.886,169.054l123.17-40.7l-133.833,1.359L164.357,232.799z
	 M261.716,119.189l-3.933,11.876l38.422-0.405L261.716,119.189z M446.288,180.626l-100.595-33.495l-93.573,0.957l-46.583,140.12
	l184.57,61.326L446.288,180.626z M348.193,130.146l43.531-0.479l0.148,14.965l75.851,25.186L392.535,396.12l0.404,1.285
	l-0.956,0.331l-1.545,4.56l-6.104-2.022l-208.286,68.828L99.206,236.513l64.968-21.473l-0.846-82.983l76.549-0.809l11.104-33.421
	L348.193,130.146z"/>
</svg>
