<?xml version="1.0" encoding="utf-8"?>
<!-- Generator: Adobe Illustrator 16.0.0, SVG Export Plug-In . SVG Version: 6.00 Build 0)  -->
<!DOCTYPE svg PUBLIC "-//W3C//DTD SVG 1.1//EN" "http://www.w3.org/Graphics/SVG/1.1/DTD/svg11.dtd">
<svg version="1.1" id="icon" xmlns="http://www.w3.org/2000/svg" xmlns:xlink="http://www.w3.org/1999/xlink" x="0px" y="0px"
	 width="306.143px" height="306.141px" viewBox="0 0 306.143 306.141" enable-background="new 0 0 306.143 306.141"
	 xml:space="preserve">
<path id="search" fill="#FFFFFF" d="M241.765,252.408c-2.052,0.862-3.49,0.883-4.315,0.061c-0.099-0.101-0.19-0.211-0.27-0.332
	c-0.081-0.061-0.161-0.12-0.242-0.181l-72.189-72.013c-0.824-0.822-0.794-2.256,0.09-4.303c0.081-0.2,0.182-0.411,0.304-0.632
	l-4.828-4.815c-4.746,3.813-9.954,6.911-15.626,9.3c-8.165,3.451-16.712,5.176-25.642,5.176c-8.93,0-17.477-1.725-25.642-5.176
	c-7.904-3.33-14.903-8.034-20.997-14.114c-6.093-6.078-10.81-13.051-14.148-20.915c-3.459-8.166-5.189-16.702-5.189-25.609
	c0-8.907,1.731-17.433,5.189-25.58c3.338-7.864,8.055-14.835,14.148-20.914c6.094-6.079,13.093-10.783,20.997-14.114
	c8.166-3.451,16.712-5.176,25.642-5.176c8.929,0,17.477,1.726,25.642,5.176c7.884,3.331,14.872,8.035,20.966,14.114
	s10.811,13.05,14.148,20.914c3.459,8.146,5.189,16.673,5.189,25.58c0,8.908-1.73,17.443-5.189,25.609
	c-2.573,6.059-5.962,11.597-10.165,16.611l4.584,4.575c0.423-0.221,0.837-0.422,1.237-0.603c2.052-0.882,3.489-0.913,4.314-0.09
	l72.31,72.162c0.021,0.04,0.04,0.072,0.06,0.091c0.121,0.08,0.231,0.171,0.332,0.271c0.825,0.821,0.794,2.257-0.092,4.304
	c-0.863,2.065-2.342,4.132-4.434,6.198C245.877,250.05,243.817,251.524,241.765,252.408z M158.986,79.042
	c-5.228-5.216-11.221-9.249-17.978-12.098c-6.999-2.969-14.319-4.454-21.962-4.454s-14.974,1.484-21.991,4.454
	c-6.757,2.849-12.741,6.881-17.949,12.098c-5.229,5.196-9.272,11.165-12.127,17.905c-2.976,6.982-4.464,14.284-4.464,21.908
	c0,7.623,1.488,14.936,4.464,21.938c2.856,6.741,6.898,12.709,12.127,17.906c5.208,5.216,11.192,9.248,17.949,12.097
	c7.018,2.97,14.349,4.453,21.991,4.453s14.963-1.483,21.962-4.453c6.756-2.849,12.75-6.88,17.978-12.097
	c5.209-5.196,9.243-11.165,12.099-17.906c2.977-6.981,4.464-14.294,4.464-21.938c0-7.624-1.487-14.926-4.464-21.908
	C168.229,90.206,164.195,84.238,158.986,79.042z"/>
</svg>
