<?xml version="1.0" encoding="utf-8"?>
<!-- Generator: Adobe Illustrator 16.0.0, SVG Export Plug-In . SVG Version: 6.00 Build 0)  -->
<!DOCTYPE svg PUBLIC "-//W3C//DTD SVG 1.1//EN" "http://www.w3.org/Graphics/SVG/1.1/DTD/svg11.dtd">
<svg version="1.1" id="icon" xmlns="http://www.w3.org/2000/svg" xmlns:xlink="http://www.w3.org/1999/xlink" x="0px" y="0px"
	 width="100px" height="100px" viewBox="0 0 100 100" enable-background="new 0 0 100 100" xml:space="preserve">
<circle id="cicrle" opacity="0.5" enable-background="new    " cx="50" cy="50" r="49"/>
<path id="zoom" opacity="0.5" fill-rule="evenodd" clip-rule="evenodd" fill="#FFFFFF" d="M76.389,78.941
	c-0.595,0.251-1.01,0.257-1.248,0.018c-0.029-0.029-0.056-0.061-0.079-0.096c-0.022-0.018-0.046-0.034-0.069-0.053L54.121,57.939
	c-0.238-0.238-0.23-0.654,0.026-1.248c0.022-0.058,0.052-0.118,0.086-0.183l-1.395-1.396c-1.373,1.105-2.878,2.004-4.518,2.695
	c-2.361,1.001-4.833,1.501-7.414,1.501c-2.582,0-5.053-0.5-7.414-1.501c-2.285-0.965-4.309-2.328-6.071-4.09
	s-3.125-3.782-4.091-6.062c-1-2.367-1.5-4.841-1.5-7.422s0.5-5.053,1.5-7.414c0.965-2.279,2.329-4.3,4.091-6.062
	s3.786-3.125,6.071-4.091c2.36-1,4.832-1.5,7.414-1.5c2.582,0,5.053,0.5,7.414,1.5c2.28,0.966,4.3,2.329,6.061,4.091
	c1.762,1.762,3.126,3.783,4.09,6.062c1.001,2.36,1.501,4.832,1.501,7.414s-0.5,5.056-1.501,7.422
	c-0.743,1.756-1.723,3.361-2.938,4.814l1.325,1.327c0.122-0.065,0.241-0.123,0.357-0.175c0.594-0.256,1.01-0.265,1.248-0.026
	l20.906,20.916c0.006,0.011,0.011,0.021,0.018,0.026c0.035,0.022,0.065,0.049,0.096,0.077c0.238,0.238,0.23,0.654-0.026,1.247
	c-0.25,0.6-0.678,1.198-1.282,1.798C77.577,78.258,76.981,78.686,76.389,78.941z M52.454,28.694
	c-1.512-1.512-3.244-2.681-5.197-3.506c-2.024-0.86-4.141-1.291-6.35-1.291c-2.21,0-4.329,0.43-6.358,1.291
	c-1.953,0.826-3.684,1.995-5.189,3.506c-1.512,1.506-2.681,3.236-3.506,5.189c-0.86,2.024-1.291,4.14-1.291,6.35
	s0.431,4.329,1.291,6.358c0.826,1.954,1.994,3.685,3.506,5.191c1.506,1.51,3.236,2.68,5.189,3.506c2.029,0.86,4.148,1.29,6.358,1.29
	c2.209,0,4.326-0.43,6.35-1.29c1.953-0.826,3.686-1.996,5.197-3.506c1.507-1.506,2.673-3.237,3.498-5.191
	c0.86-2.023,1.291-4.143,1.291-6.358c0-2.21-0.431-4.326-1.291-6.35C55.127,31.93,53.961,30.2,52.454,28.694z"/>
</svg>
